<?xml version="1.0" standalone="no"?>
<!DOCTYPE svg PUBLIC "-//W3C//DTD SVG 20010904//EN"
 "http://www.w3.org/TR/2001/REC-SVG-20010904/DTD/svg10.dtd">
<svg version="1.0" xmlns="http://www.w3.org/2000/svg"
 width="700.000000pt" height="700.000000pt" viewBox="0 0 700.000000 700.000000"
 preserveAspectRatio="xMidYMid meet">
<metadata>
Created by potrace 1.11, written by Peter Selinger 2001-2013
</metadata>
<g transform="translate(0.000000,700.000000) scale(0.100000,-0.100000)"
fill="#000000" stroke="none">
<path d="M5845 6939 c-83 -12 -186 -45 -275 -86 -122 -57 -209 -76 -410 -89
-155 -10 -555 -3 -630 11 -8 2 -49 6 -90 9 -78 7 -141 13 -200 21 -209 26
-599 21 -800 -10 -19 -3 -53 -8 -75 -11 -80 -10 -253 -46 -365 -76 -398 -104
-771 -271 -1130 -505 -101 -67 -266 -186 -280 -203 -3 -3 -14 -13 -26 -21 -12
-8 -50 -39 -84 -69 -218 -189 -409 -388 -555 -580 -28 -36 -55 -71 -62 -78 -6
-7 -51 -72 -99 -145 -48 -72 -95 -143 -104 -157 -56 -84 -270 -508 -270 -536
0 -3 -7 -20 -15 -37 -21 -48 -112 -321 -135 -410 -25 -94 -66 -301 -80 -395
-9 -67 -14 -113 -25 -227 -7 -73 -9 -481 -2 -492 3 -4 8 -46 11 -93 4 -47 9
-103 12 -125 3 -22 7 -56 9 -75 5 -37 11 -123 21 -255 7 -107 7 -446 0 -515
-21 -192 -34 -249 -87 -363 -72 -155 -93 -244 -93 -397 0 -154 18 -237 84
-375 151 -315 484 -571 795 -610 171 -22 367 15 534 100 46 23 130 48 201 59
175 28 601 29 865 1 22 -3 69 -7 105 -10 36 -3 85 -8 110 -10 189 -22 521 -27
685 -11 132 13 296 38 405 61 87 19 113 25 185 45 155 41 414 130 500 170 195
90 343 165 399 198 37 23 70 42 73 42 10 0 265 171 344 231 79 59 247 199 295
244 106 100 139 133 205 201 65 68 159 178 262 304 52 65 152 210 235 343 83
131 258 475 282 552 7 22 16 45 20 50 22 29 148 436 165 536 3 16 12 60 19 97
14 66 17 85 32 187 3 28 8 57 9 66 19 103 26 537 11 674 -4 39 -9 88 -11 110
-2 22 -7 65 -11 95 -22 198 -29 326 -29 560 0 329 16 458 70 575 52 113 64
143 79 195 35 121 49 293 31 370 -3 14 -8 40 -11 58 -5 35 -45 147 -72 202
-29 58 -96 162 -132 204 -37 44 -140 147 -180 180 -109 90 -283 179 -390 200
-14 3 -46 9 -71 14 -60 12 -179 12 -254 1z"/>
</g>
</svg>
